HIERARCHY
ROOT root
{
	OFFSET 0.000000 0.000000 0.000000
	CHANNELS 6 Xposition Yposition Zposition Zrotation Yrotation Xrotation
	JOINT lhip
	{
		OFFSET 0.058581 -0.082280 -0.017664
		CHANNELS 3 Zrotation Yrotation Xrotation
		JOINT lknee
		{
			OFFSET 0.043451 -0.386469 0.008037
			CHANNELS 3 Zrotation Yrotation Xrotation
			JOINT lankle
			{
				OFFSET -0.014790 -0.426874 -0.037428
				CHANNELS 3 Zrotation Yrotation Xrotation
				JOINT ltoe
				{
					OFFSET 0.041054 -0.060286 0.122042
					CHANNELS 3 Zrotation Yrotation Xrotation
					End Site
					{
						OFFSET 0.000000 0.000000 0.000000
					}
				}
			}
		}
	}
	JOINT rhip
	{
		OFFSET -0.060310 -0.090513 -0.013543
		CHANNELS 3 Zrotation Yrotation Xrotation
		JOINT rknee
		{
			OFFSET -0.043257 -0.383688 -0.004843
			CHANNELS 3 Zrotation Yrotation Xrotation
			JOINT rankle
			{
				OFFSET 0.019056 -0.420046 -0.034562
				CHANNELS 3 Zrotation Yrotation Xrotation
				JOINT rtoe
				{
					OFFSET -0.034840 -0.062106 0.130323
					CHANNELS 3 Zrotation Yrotation Xrotation
					End Site
					{
						OFFSET 0.000000 0.000000 0.000000
					}
				}
			}
		}
	}
	JOINT lowerback
	{
		OFFSET 0.004439 0.124404 -0.038385
		CHANNELS 3 Zrotation Yrotation Xrotation
		JOINT upperback
		{
			OFFSET 0.004488 0.137956 0.026820
			CHANNELS 3 Zrotation Yrotation Xrotation
			JOINT chest
			{
				OFFSET -0.002265 0.056032 0.002855
				CHANNELS 3 Zrotation Yrotation Xrotation
				JOINT lowerneck
				{
					OFFSET -0.013390 0.211636 -0.033468
					CHANNELS 3 Zrotation Yrotation Xrotation
					JOINT upperneck
					{
						OFFSET 0.010113 0.088937 0.050410
						CHANNELS 3 Zrotation Yrotation Xrotation
						End Site
						{
							OFFSET 0.000000 0.000000 0.000000
						}
					}
				}
				JOINT lclavicle
				{
					OFFSET 0.071702 0.114000 -0.018898
					CHANNELS 3 Zrotation Yrotation Xrotation
					JOINT lshoulder
					{
						OFFSET 0.122921 0.045205 -0.019046
						CHANNELS 3 Zrotation Yrotation Xrotation
						JOINT lelbow
						{
							OFFSET 0.255332 -0.015649 -0.022946
							CHANNELS 3 Zrotation Yrotation Xrotation
							JOINT lwrist
							{
								OFFSET 0.265709 0.012698 -0.007375
								CHANNELS 3 Zrotation Yrotation Xrotation
								End Site
								{
									OFFSET 0.000000 0.000000 0.000000
								}
							}
						}
					}
				}
				JOINT rclavicle
				{
					OFFSET -0.082954 0.112472 -0.023707
					CHANNELS 3 Zrotation Yrotation Xrotation
					JOINT rshoulder
					{
						OFFSET -0.113228 0.046853 -0.008472
						CHANNELS 3 Zrotation Yrotation Xrotation
						JOINT relbow
						{
							OFFSET -0.260127 -0.014369 -0.031269
							CHANNELS 3 Zrotation Yrotation Xrotation
							JOINT rwrist
							{
								OFFSET -0.269108 0.006794 -0.006027
								CHANNELS 3 Zrotation Yrotation Xrotation
								End Site
								{
									OFFSET 0.000000 0.000000 0.000000
								}
							}
						}
					}
				}
			}
		}
	}
}
MOTION
Frames: 11
Frame Time: 0.033333
0.571080 0.234672 0.968869 93.639284 0.384837 92.925623 -3.122196 -4.255063 -19.889488 -8.070517 -16.159962 39.485614 4.758016 19.568402 -26.596752 0.000000 -0.000000 0.000000 1.393461 -3.500045 -17.166066 5.784117 8.571556 32.554417 3.300456 -14.640988 -27.821603 0.000000 -0.000000 0.000000 2.461516 0.565635 9.724855 -0.077041 -4.712753 -17.614085 0.573571 -0.574817 6.685047 -3.067082 3.208061 11.416573 1.979091 1.115898 -13.721887 31.193548 -0.203881 -17.795914 3.958305 -14.272159 -27.984752 17.726720 -5.143311 -28.801661 19.315706 -7.720068 -27.402806 -33.708554 -1.700151 -18.704718 -2.687762 17.899483 -29.815394 -21.361383 8.282840 -37.251111 -20.012021 -1.115366 -41.783115 
0.572741 0.233675 0.962152 93.634333 0.290367 92.863357 -3.319043 -4.643249 -20.973676 -8.162087 -15.485383 42.061976 4.783394 19.705781 -27.634157 0.000000 -0.000000 0.000000 1.258299 -3.712054 -18.269148 6.036225 7.798905 35.057556 3.160240 -13.995808 -28.977365 0.000000 -0.000000 0.000000 2.226877 0.643897 9.898093 0.004227 -4.881929 -17.583373 0.638028 -0.501512 6.218670 -3.122249 3.190657 11.968675 2.104548 0.969662 -13.013941 32.332012 -1.541495 -18.703287 5.239346 -15.414214 -29.007934 19.032759 -7.729346 -30.216196 19.203963 -7.867851 -27.803379 -34.777679 -0.476392 -19.430726 -3.765632 19.399658 -30.667831 -22.553602 11.077462 -36.665213 -19.598139 -0.514383 -41.143612 
0.574142 0.232823 0.955731 93.592253 0.193930 92.888355 -3.417574 -5.063457 -22.143665 -8.206896 -14.600032 44.515865 4.712607 19.634331 -28.517875 0.000000 -0.000000 0.000000 1.056520 -3.947950 -19.378976 6.174638 6.903396 37.348769 2.972135 -13.167237 -29.973281 0.000000 -0.000000 0.000000 2.063743 0.698079 10.150084 0.078068 -5.051162 -17.546074 0.673725 -0.409219 5.732850 -3.186197 3.159134 12.423801 2.234646 0.726312 -12.320439 33.298874 -2.728177 -19.470395 6.063388 -16.431160 -29.729799 20.798917 -10.729238 -31.317104 18.907487 -8.366023 -28.257030 -35.689240 0.689607 -20.001949 -4.496241 20.732410 -31.336829 -24.008230 14.270065 -35.929185 -18.976972 0.353807 -40.725060 
0.575222 0.232169 0.949195 93.507099 0.093164 93.014806 -3.416703 -5.403628 -23.467887 -8.450181 -13.810154 46.946669 4.610184 19.489996 -29.186221 0.000000 -0.000000 0.000000 0.810884 -4.228750 -20.607775 6.393596 6.150386 39.551377 2.810611 -12.418152 -30.690374 0.000000 -0.000000 0.000000 1.896149 0.764566 10.427856 0.181496 -5.193022 -17.501281 0.674726 -0.312130 5.310149 -3.231169 3.126706 12.718193 2.391629 0.448492 -11.724693 34.002813 -3.866114 -20.059113 6.964074 -16.995171 -29.967153 22.380274 -14.160212 -31.916180 18.776504 -8.721405 -28.666481 -36.269000 1.896512 -20.493011 -5.404359 21.813793 -32.038333 -25.428591 17.667775 -35.779680 -18.533066 0.970716 -40.595662 
0.575933 0.231585 0.942686 93.317907 -0.027800 93.240982 -3.352030 -5.680415 -24.936967 -8.646030 -12.892676 49.335216 4.462186 19.143746 -29.726489 0.000000 -0.000000 0.000000 0.539236 -4.454636 -21.997214 6.522090 5.341773 41.725741 2.663106 -11.687690 -31.254854 0.000000 -0.000000 0.000000 1.694626 0.856620 10.729255 0.276215 -5.283267 -17.467598 0.680224 -0.201579 4.945330 -3.236733 3.138189 12.932174 2.563147 0.196842 -11.302846 34.618193 -4.912969 -20.615497 7.772951 -17.595902 -30.152948 24.011329 -17.362052 -32.515963 18.812112 -9.254924 -28.730427 -36.751601 3.013921 -20.862482 -6.185588 22.777802 -32.580134 -26.832719 20.949041 -35.674501 -18.226396 1.576752 -40.487157 
0.576317 0.231272 0.936275 93.082461 -0.158622 93.518457 -3.333579 -5.968650 -26.411433 -8.720975 -11.975891 51.541133 4.344213 18.879961 -30.178976 0.000000 -0.000000 0.000000 0.270954 -4.718492 -23.494475 6.462041 4.460001 43.884988 2.582250 -10.903742 -31.689740 0.000000 -0.000000 0.000000 1.537177 0.947824 11.133333 0.310776 -5.373807 -17.569704 0.709756 -0.081891 4.711488 -3.312150 3.155759 13.131632 2.802955 0.040645 -11.123256 35.214843 -5.937457 -21.158056 8.474088 -18.195202 -30.404777 25.683149 -20.269252 -33.800535 19.754202 -9.720218 -27.943421 -37.231001 4.076479 -21.135503 -6.813767 23.546262 -32.986251 -28.060903 24.096588 -35.615025 -18.625473 2.081320 -39.765708 
0.576261 0.231169 0.930037 92.828992 -0.244365 93.843307 -3.370411 -6.250767 -27.876287 -8.687259 -11.232582 53.601347 4.270395 18.841043 -30.572225 0.000000 -0.000000 0.000000 0.088878 -4.932446 -25.082921 6.377544 3.705427 46.040906 2.521717 -10.271978 -32.036715 0.000000 -0.000000 0.000000 1.447156 0.983132 11.623680 0.336320 -5.407162 -17.703920 0.726631 0.018715 4.510508 -3.389471 3.191198 13.169465 3.005567 -0.043177 -11.032636 35.806763 -6.744768 -21.592854 8.936400 -18.830502 -30.498396 27.384885 -23.027069 -34.770794 19.949844 -9.813793 -28.014489 -37.641651 4.963801 -21.313481 -7.244651 24.264406 -33.164781 -29.226699 27.091158 -35.304378 -18.529406 2.565332 -39.411298 
0.575765 0.231231 0.923957 92.571636 -0.292780 94.203063 -3.316101 -6.647743 -29.302525 -8.625757 -10.483301 55.461838 4.214186 18.865044 -30.949987 0.000000 -0.000000 0.000000 -0.054835 -4.991600 -26.667684 6.359549 3.102485 48.085896 2.488851 -9.839981 -32.340660 0.000000 -0.000000 0.000000 1.390380 0.990610 12.167820 0.383980 -5.430342 -17.813595 0.747306 0.095326 4.332694 -3.524205 3.235716 13.077435 3.192080 -0.075604 -11.066643 36.294314 -7.546292 -21.959874 9.431538 -19.428402 -30.653058 29.154244 -25.401079 -35.914968 20.526753 -9.879952 -28.143069 -37.929967 5.794561 -21.395854 -7.671077 24.829690 -33.255358 -30.331958 29.863840 -35.158764 -19.173919 2.819354 -38.772058 
0.574879 0.231496 0.918069 92.366436 -0.318720 94.625296 -3.169802 -7.092346 -30.752397 -8.604451 -9.765270 57.143301 4.225765 18.853912 -31.257701 0.000000 -0.000000 0.000000 -0.220612 -4.885708 -28.220108 6.307178 2.508411 49.914520 2.441813 -9.466607 -32.593238 0.000000 -0.000000 0.000000 1.327591 0.973515 12.643611 0.505785 -5.478746 -17.800169 0.773012 0.149681 4.141553 -3.720383 3.228475 12.938340 3.338145 -0.180167 -11.192057 36.740812 -8.286687 -22.210426 9.712370 -19.930741 -30.716352 30.978652 -27.532648 -37.149924 21.043893 -9.967041 -28.270562 -38.138577 6.554835 -21.482784 -7.782097 25.377632 -33.175263 -31.738941 32.557294 -35.244267 -19.000904 3.273216 -38.622133 
0.573788 0.231826 0.912525 92.227569 -0.303573 95.111560 -2.962309 -7.475125 -32.269362 -8.592489 -9.121344 58.737203 4.235451 18.797226 -31.474454 0.000000 -0.000000 0.000000 -0.327261 -4.681407 -29.709742 6.220441 2.077933 51.515369 2.384197 -9.156987 -32.805397 0.000000 -0.000000 0.000000 1.296662 0.938946 13.068493 0.653011 -5.538356 -17.788421 0.809865 0.136244 3.933375 -3.946831 3.140553 12.863424 3.456867 -0.236304 -11.271943 37.003391 -9.019561 -22.311621 9.757152 -20.323950 -30.628433 32.822899 -29.802481 -38.198136 21.682790 -9.883841 -28.153091 -38.235762 7.213713 -21.571254 -7.600040 25.945225 -32.945233 -33.209923 35.235138 -35.283765 -19.081337 3.728697 -38.076316 
0.572376 0.232199 0.907166 92.197484 -0.338593 95.670714 -2.756158 -7.877441 -33.868797 -8.632134 -8.536310 60.228060 4.280764 18.688511 -31.556078 0.000000 -0.000000 0.000000 -0.506683 -4.481564 -31.199922 6.156225 1.676855 52.907445 2.363949 -9.003392 -32.948284 0.000000 -0.000000 0.000000 1.248511 0.879458 13.508481 0.764173 -5.613179 -17.845370 0.806591 0.105047 3.769215 -4.133567 2.939497 12.725707 3.676912 -0.248790 -11.378480 37.067726 -9.665130 -22.328621 9.802282 -20.703122 -30.427809 34.502002 -32.129644 -39.032563 22.449721 -9.828678 -28.023741 -38.144594 7.742274 -21.535169 -7.336546 26.245852 -32.495713 -34.650555 37.822526 -35.163211 -19.288056 4.323539 -37.089021 
